<svg width="26" height="21" viewBox="0 0 26 21" fill="none" xmlns="http://www.w3.org/2000/svg">
<path d="M2.57191 5.33982V5.33214L2.58727 5.26558C2.71145 4.79734 2.9234 4.35693 3.21187 3.96775C3.71103 3.30219 4.61977 2.55984 6.42446 2.55984C8.05508 2.55984 9.08157 3.09484 9.66265 3.83208C10.254 4.58467 10.5663 5.78267 10.277 7.46192C10.1081 8.45002 9.61401 9.03878 8.83838 9.53539C8.2061 9.94496 7.49191 10.2342 6.64204 10.5798C6.27782 10.727 5.91515 10.878 5.55411 11.0329C4.29468 11.5756 2.87397 12.3 1.79116 13.5953C0.680186 14.9264 0.0325482 16.7208 0.0325482 19.1988C0.0325482 19.5382 0.167397 19.8638 0.407428 20.1038C0.647459 20.3438 0.973011 20.4787 1.31247 20.4787H11.5365C11.8759 20.4787 12.2015 20.3438 12.4415 20.1038C12.6815 19.8638 12.8164 19.5382 12.8164 19.1988C12.8164 18.8593 12.6815 18.5338 12.4415 18.2937C12.2015 18.0537 11.8759 17.9189 11.5365 17.9189H2.66918C2.83813 16.6645 3.25282 15.8377 3.75199 15.2387C4.43547 14.4196 5.39029 13.8897 6.56525 13.3828C6.82635 13.2702 7.1105 13.155 7.40488 13.0347C8.32898 12.6609 9.37083 12.2386 10.2207 11.6908C11.452 10.8972 12.481 9.7453 12.7985 7.89709C13.1671 5.73659 12.8394 3.7348 11.6721 2.24754C10.4844 0.744912 8.62592 0 6.42446 0C3.75199 0 2.10857 1.17752 1.16656 2.43184C0.638008 3.14302 0.26316 3.95635 0.0658261 4.82017L0.0581459 4.87649L0.0530266 4.89441V4.91233C0.0402274 4.97632 -0.0596062 5.57276 0.0530266 4.91233C0.018572 5.2362 0.108883 5.56102 0.305563 5.82063C0.502243 6.08024 0.790497 6.2551 1.1116 6.3096C1.43271 6.3641 1.76252 6.29413 2.03383 6.11394C2.30515 5.93376 2.49758 5.65692 2.57191 5.33982ZM17.5546 10.6131C17.4356 10.4944 17.2944 10.4003 17.1391 10.3363C16.9837 10.2722 16.8172 10.2393 16.6492 10.2395C16.4811 10.2398 16.3148 10.2731 16.1596 10.3376C16.0044 10.4022 15.8635 10.4966 15.7448 10.6156C15.6262 10.7346 15.5321 10.8759 15.468 11.0312C15.4039 11.1866 15.371 11.353 15.3713 11.5211C15.3715 11.6891 15.4049 11.8555 15.4694 12.0107C15.5339 12.1658 15.6284 12.3068 15.7474 12.4254L18.6784 15.359L15.7474 18.2926C15.5139 18.5336 15.3844 18.8568 15.3868 19.1924C15.3892 19.528 15.5234 19.8492 15.7604 20.0869C15.9974 20.3245 16.3182 20.4596 16.6538 20.463C16.9894 20.4664 17.3129 20.3378 17.5546 20.105L20.4856 17.1688L23.4167 20.105C23.657 20.3446 23.9827 20.479 24.3221 20.4785C24.6615 20.478 24.9868 20.3427 25.2265 20.1024C25.4661 19.8621 25.6005 19.5364 25.6 19.197C25.5995 18.8576 25.4642 18.5322 25.2239 18.2926L22.2929 15.359L25.2239 12.4254C25.4574 12.1844 25.5869 11.8612 25.5845 11.5256C25.582 11.19 25.4479 10.8688 25.2109 10.6312C24.9739 10.3935 24.6531 10.2584 24.3175 10.2551C23.9819 10.2517 23.6584 10.3803 23.4167 10.6131L20.4856 13.5492L17.5546 10.6131Z" fill="#000091"/>
</svg>
