<svg width="12" height="14" viewBox="0 0 12 14" fill="none" xmlns="http://www.w3.org/2000/svg">
<path d="M4.75 2.25C4.75 1.91848 4.8817 1.60054 5.11612 1.36612C5.35054 1.1317 5.66848 1 6 1C6.33152 1 6.64946 1.1317 6.88388 1.36612C7.1183 1.60054 7.25 1.91848 7.25 2.25C7.25 2.58152 7.1183 2.89946 6.88388 3.13388C6.64946 3.3683 6.33152 3.5 6 3.5C5.66848 3.5 5.35054 3.3683 5.11612 3.13388C4.8817 2.89946 4.75 2.58152 4.75 2.25ZM6 2.07905e-07C5.66066 5.16631e-06 5.32571 0.0767673 5.02023 0.224541C4.71475 0.372314 4.44665 0.587271 4.23601 0.853321C4.02536 1.11937 3.87762 1.42962 3.80385 1.76085C3.73007 2.09208 3.73218 2.4357 3.81 2.766L2.198 2.116C1.80688 1.95848 1.36939 1.96171 0.980645 2.125C0.591898 2.28829 0.283321 2.59843 0.122 2.988C0.0421503 3.18092 0.00132967 3.38776 0.00189794 3.59655C0.00246622 3.80534 0.0444123 4.01195 0.125311 4.20443C0.20621 4.39692 0.324458 4.57146 0.473219 4.71797C0.62198 4.86448 0.798305 4.98005 0.992 5.058L3 5.869V8.253L1.187 11.663C1.08884 11.8475 1.02798 12.0495 1.00789 12.2576C0.987811 12.4656 1.0089 12.6755 1.06995 12.8754C1.13101 13.0753 1.23083 13.2612 1.36373 13.4225C1.49663 13.5838 1.65999 13.7173 1.8445 13.8155C2.21713 14.0137 2.65325 14.0559 3.05692 13.9325C3.4606 13.8092 3.79875 13.5306 3.997 13.158L6 9.39L8.004 13.158C8.20212 13.5306 8.54015 13.8093 8.94372 13.9327C9.3473 14.0561 9.78337 14.0141 10.156 13.816C10.5286 13.6179 10.8073 13.2799 10.9307 12.8763C11.0541 12.4727 11.0121 12.0366 10.814 11.664L9 8.252V5.869L11.008 5.058C11.2017 4.98005 11.378 4.86448 11.5268 4.71797C11.6755 4.57146 11.7938 4.39692 11.8747 4.20443C11.9556 4.01195 11.9975 3.80534 11.9981 3.59655C11.9987 3.38776 11.9579 3.18092 11.878 2.988C11.7169 2.59825 11.4084 2.28788 11.0196 2.1244C10.6308 1.96092 10.1932 1.95754 9.802 2.115L8.191 2.766C8.26884 2.43562 8.27093 2.09191 8.1971 1.7606C8.12327 1.4293 7.97544 1.119 7.76468 0.852928C7.55393 0.58686 7.2857 0.371923 6.9801 0.224214C6.67449 0.0765058 6.33943 -0.000145697 6 2.07905e-07ZM1.047 3.369C1.10751 3.22352 1.22281 3.10769 1.368 3.0465C1.51319 2.98532 1.67663 2.9837 1.823 3.042L5.251 4.427C5.73148 4.62106 6.26852 4.62106 6.749 4.427L10.177 3.042C10.3234 2.9837 10.4868 2.98532 10.632 3.0465C10.7772 3.10769 10.8925 3.22352 10.953 3.369C10.9826 3.43998 10.9978 3.51613 10.9978 3.59304C10.9977 3.66995 10.9823 3.74608 10.9525 3.81699C10.9227 3.8879 10.8792 3.95218 10.8243 4.00609C10.7694 4.06 10.7044 4.10246 10.633 4.131L8.625 4.941C8.44003 5.01582 8.28167 5.14427 8.17029 5.30983C8.05891 5.47538 7.99961 5.67047 8 5.87V8.253C7.9999 8.41689 8.04008 8.57829 8.117 8.723L9.931 12.134C9.99659 12.2716 10.0066 12.4292 9.95886 12.574C9.91115 12.7188 9.80942 12.8396 9.67488 12.9112C9.54033 12.9829 9.38332 12.9999 9.23656 12.9587C9.08979 12.9175 8.96458 12.8212 8.887 12.69L6.883 8.92C6.79782 8.75976 6.67064 8.62571 6.51509 8.53223C6.35954 8.43876 6.18148 8.38937 6 8.38937C5.81852 8.38937 5.64047 8.43876 5.48491 8.53223C5.32936 8.62571 5.20218 8.75976 5.117 8.92L3.114 12.687C3.07756 12.7556 3.02797 12.8163 2.96807 12.8656C2.90817 12.915 2.83913 12.9521 2.76489 12.9748C2.69065 12.9975 2.61266 13.0054 2.53538 12.998C2.45811 12.9905 2.38305 12.9679 2.3145 12.9315C2.24595 12.8951 2.18525 12.8455 2.13586 12.7856C2.08648 12.7257 2.04937 12.6566 2.02667 12.5824C2.00396 12.5081 1.99611 12.4302 2.00354 12.3529C2.01098 12.2756 2.03356 12.2006 2.07 12.132L3.883 8.722C3.95977 8.57759 3.99994 8.41655 4 8.253V5.869C4 5.66981 3.9405 5.47516 3.82915 5.31C3.7178 5.14484 3.55966 5.0167 3.375 4.942L1.367 4.13C1.29558 4.10146 1.23055 4.059 1.1757 4.00509C1.12085 3.95118 1.07726 3.8869 1.04748 3.81599C1.0177 3.74508 1.00233 3.66895 1.00224 3.59204C1.00216 3.51513 1.01737 3.43998 1.047 3.369Z" fill="#000091"/>
</svg>
