<svg width="30" height="36" viewBox="0 0 30 36" fill="none" xmlns="http://www.w3.org/2000/svg">
<path fill-rule="evenodd" clip-rule="evenodd" d="M15 0.666626C17.2101 0.666626 19.3298 1.5446 20.8926 3.1074C22.4554 4.67021 23.3333 6.78982 23.3333 8.99996V12.3333H28.3333C29.2538 12.3333 30 13.0795 30 14V34C30 34.9204 29.2538 35.6666 28.3333 35.6666H1.66667C0.746192 35.6666 0 34.9204 0 34V14C0 13.0795 0.746192 12.3333 1.66667 12.3333H6.66667V8.99996C6.66667 4.39759 10.3976 0.666626 15 0.666626ZM23.3333 17.3333H20V19C20.001 19.8818 20.6887 20.6102 21.569 20.6619C22.4493 20.7136 23.2175 20.0706 23.3217 19.195L23.3333 19V17.3333ZM10 17.3333H6.66667V19C6.66764 19.8818 7.35535 20.6102 8.23566 20.6619C9.11597 20.7136 9.88418 20.0706 9.98833 19.195L10 19V17.3333ZM15 3.99996C12.3524 3.99981 10.1637 6.06359 10.0083 8.70663L10 8.99996V12.3333H20V8.99996C20.0001 6.35236 17.9364 4.16362 15.2933 4.00829L15 3.99996Z" fill="white"/>
</svg>
