<svg width="41" height="40" viewBox="0 0 41 40" fill="none" xmlns="http://www.w3.org/2000/svg">
<g id="stadia_controller">
<mask id="mask0_50_33" style="mask-type:alpha" maskUnits="userSpaceOnUse" x="0" y="0" width="41" height="40">
<rect id="Bounding box" x="0.979248" width="39.9168" height="40" fill="#D9D9D9"/>
</mask>
<g mask="url(#mask0_50_33)">
<path id="stadia_controller_2" d="M8.83785 33.3333C7.17465 33.3333 5.754 32.7361 4.5759 31.5416C3.3978 30.3472 2.78103 28.9027 2.72559 27.2083C2.72559 26.9583 2.73945 26.7083 2.76717 26.4583C2.79489 26.2083 2.83647 25.9583 2.89191 25.7083L6.38463 11.7083C6.77271 10.2083 7.56273 8.99301 8.75469 8.06246C9.94665 7.1319 11.3049 6.66663 12.8295 6.66663H29.0458C30.5704 6.66663 31.9286 7.1319 33.1206 8.06246C34.3126 8.99301 35.1026 10.2083 35.4907 11.7083L38.9834 25.7083C39.0388 25.9583 39.0873 26.2152 39.1289 26.4791C39.1705 26.743 39.1913 27 39.1913 27.25C39.1913 28.9444 38.5884 30.3819 37.3826 31.5625C36.1767 32.743 34.7284 33.3333 33.0374 33.3333C31.8732 33.3333 30.7921 33.0277 29.7942 32.4166C28.7963 31.8055 28.0478 30.9722 27.5489 29.9166L26.3846 27.5C26.246 27.2222 26.0381 27.0138 25.7609 26.875C25.4837 26.7361 25.1927 26.6666 24.8877 26.6666H16.9875C16.6826 26.6666 16.3916 26.7361 16.1144 26.875C15.8372 27.0138 15.6293 27.2222 15.4907 27.5L14.3264 29.9166C13.8275 30.9722 13.079 31.8055 12.0811 32.4166C11.0832 33.0277 10.0021 33.3333 8.83785 33.3333ZM8.96259 30C9.48927 30 9.96744 29.8611 10.3971 29.5833C10.8268 29.3055 11.1525 28.9305 11.3742 28.4583L12.5385 26.0833C12.9543 25.2222 13.5641 24.5486 14.368 24.0625C15.1719 23.5763 16.0451 23.3333 16.9875 23.3333H24.8877C25.8302 23.3333 26.7034 23.5833 27.5073 24.0833C28.3112 24.5833 28.9349 25.25 29.3784 26.0833L30.5426 28.4583C30.7644 28.9305 31.0901 29.3055 31.5198 29.5833C31.9494 29.8611 32.4276 30 32.9543 30C33.7304 30 34.3957 29.743 34.9501 29.2291C35.5045 28.7152 35.7956 28.0694 35.8233 27.2916C35.8233 27.3194 35.7956 27.0555 35.7401 26.5L32.2474 12.5416C32.0534 11.7916 31.6653 11.1805 31.0832 10.7083C30.5011 10.2361 29.8219 9.99996 29.0458 9.99996H12.8295C12.0534 9.99996 11.3673 10.2361 10.7713 10.7083C10.1753 11.1805 9.79419 11.7916 9.62787 12.5416L6.13515 26.5C6.07971 26.6666 6.05199 26.9166 6.05199 27.25C6.05199 28.0277 6.33612 28.6805 6.90438 29.2083C7.47264 29.7361 8.15871 30 8.96259 30ZM23.4324 18.3333C23.9037 18.3333 24.2987 18.1736 24.6175 17.8541C24.9363 17.5347 25.0956 17.1388 25.0956 16.6666C25.0956 16.1944 24.9363 15.7986 24.6175 15.4791C24.2987 15.1597 23.9037 15 23.4324 15C22.9612 15 22.5662 15.1597 22.2474 15.4791C21.9286 15.7986 21.7692 16.1944 21.7692 16.6666C21.7692 17.1388 21.9286 17.5347 22.2474 17.8541C22.5662 18.1736 22.9612 18.3333 23.4324 18.3333ZM26.7589 15C27.2301 15 27.6251 14.8402 27.9439 14.5208C28.2627 14.2013 28.4221 13.8055 28.4221 13.3333C28.4221 12.8611 28.2627 12.4652 27.9439 12.1458C27.6251 11.8263 27.2301 11.6666 26.7589 11.6666C26.2876 11.6666 25.8926 11.8263 25.5738 12.1458C25.255 12.4652 25.0956 12.8611 25.0956 13.3333C25.0956 13.8055 25.255 14.2013 25.5738 14.5208C25.8926 14.8402 26.2876 15 26.7589 15ZM26.7589 21.6666C27.2301 21.6666 27.6251 21.5069 27.9439 21.1875C28.2627 20.868 28.4221 20.4722 28.4221 20C28.4221 19.5277 28.2627 19.1319 27.9439 18.8125C27.6251 18.493 27.2301 18.3333 26.7589 18.3333C26.2876 18.3333 25.8926 18.493 25.5738 18.8125C25.255 19.1319 25.0956 19.5277 25.0956 20C25.0956 20.4722 25.255 20.868 25.5738 21.1875C25.8926 21.5069 26.2876 21.6666 26.7589 21.6666ZM30.0853 18.3333C30.5565 18.3333 30.9515 18.1736 31.2703 17.8541C31.5891 17.5347 31.7485 17.1388 31.7485 16.6666C31.7485 16.1944 31.5891 15.7986 31.2703 15.4791C30.9515 15.1597 30.5565 15 30.0853 15C29.614 15 29.219 15.1597 28.9002 15.4791C28.5814 15.7986 28.4221 16.1944 28.4221 16.6666C28.4221 17.1388 28.5814 17.5347 28.9002 17.8541C29.219 18.1736 29.614 18.3333 30.0853 18.3333ZM15.1164 20.8333C15.4768 20.8333 15.7748 20.7152 16.0104 20.4791C16.246 20.243 16.3638 19.9444 16.3638 19.5833V17.9166H18.027C18.3874 17.9166 18.6854 17.7986 18.921 17.5625C19.1566 17.3263 19.2744 17.0277 19.2744 16.6666C19.2744 16.3055 19.1566 16.0069 18.921 15.7708C18.6854 15.5347 18.3874 15.4166 18.027 15.4166H16.3638V13.75C16.3638 13.3888 16.246 13.0902 16.0104 12.8541C15.7748 12.618 15.4768 12.5 15.1164 12.5C14.7561 12.5 14.4581 12.618 14.2225 12.8541C13.9868 13.0902 13.869 13.3888 13.869 13.75V15.4166H12.2058C11.8455 15.4166 11.5475 15.5347 11.3119 15.7708C11.0762 16.0069 10.9584 16.3055 10.9584 16.6666C10.9584 17.0277 11.0762 17.3263 11.3119 17.5625C11.5475 17.7986 11.8455 17.9166 12.2058 17.9166H13.869V19.5833C13.869 19.9444 13.9868 20.243 14.2225 20.4791C14.4581 20.7152 14.7561 20.8333 15.1164 20.8333Z" fill="#1C1B1F"/>
</g>
</g>
</svg>
