<svg width="26" height="28" viewBox="0 0 26 28" fill="none" xmlns="http://www.w3.org/2000/svg">
<path d="M10.272 0.946689C12.0706 0.569534 13.9277 0.568626 15.7267 0.944022C15.8465 1.73507 16.1431 2.48894 16.5944 3.14959C17.0457 3.81025 17.6401 4.36069 18.3334 4.76002C19.0261 5.16073 19.8003 5.40011 20.5983 5.46036C21.3963 5.52061 22.1976 5.40018 22.9427 5.10802C24.1671 6.47877 25.0945 8.08807 25.6667 9.83469C25.0418 10.3341 24.5375 10.968 24.1913 11.6891C23.845 12.4102 23.6657 13.2001 23.6667 14C23.6667 15.6854 24.448 17.188 25.6694 18.1654C25.0938 19.9105 24.1652 21.5186 22.9414 22.8894C22.1965 22.5974 21.3954 22.4771 20.5976 22.5373C19.7999 22.5976 19.0259 22.8369 18.3334 23.2374C17.6406 23.6366 17.0467 24.1867 16.5957 24.8468C16.1446 25.507 15.8481 26.2602 15.728 27.0507C13.9296 27.4287 12.0725 27.4305 10.2734 27.056C10.1541 26.2643 9.85776 25.5096 9.40645 24.8482C8.95514 24.1868 8.36046 23.6358 7.66669 23.236C6.97384 22.8355 6.19962 22.5964 5.40161 22.5364C4.60359 22.4763 3.80231 22.597 3.05736 22.8894C1.83282 21.5182 0.905362 19.9084 0.333355 18.1614C0.957879 17.6622 1.46197 17.0288 1.8082 16.3082C2.15444 15.5875 2.33393 14.7982 2.33336 13.9987C2.33401 13.1985 2.1543 12.4085 1.80758 11.6874C1.46086 10.9662 0.956053 10.3325 0.330688 9.83336C0.906246 8.08819 1.83485 6.48016 3.05869 5.10936C3.80356 5.4013 4.60465 5.52162 5.40241 5.46137C6.20018 5.40112 6.97411 5.16186 7.66669 4.76136C8.35942 4.36215 8.95334 3.81205 9.40437 3.1519C9.8554 2.49174 10.152 1.73848 10.272 0.948022V0.946689ZM13 18C14.0609 18 15.0783 17.5786 15.8284 16.8284C16.5786 16.0783 17 15.0609 17 14C17 12.9392 16.5786 11.9217 15.8284 11.1716C15.0783 10.4214 14.0609 10 13 10C11.9392 10 10.9217 10.4214 10.1716 11.1716C9.42145 11.9217 9.00002 12.9392 9.00002 14C9.00002 15.0609 9.42145 16.0783 10.1716 16.8284C10.9217 17.5786 11.9392 18 13 18V18Z" fill="#000091"/>
</svg>
