<?xml version="1.0" encoding="UTF-8" standalone="no"?>
<svg
   width="27"
   height="28"
   viewBox="0 0 27 28"
   fill="none"
   version="1.1"
   id="svg1"
   sodipodi:docname="person.svg"
   inkscape:version="1.3 (0e150ed6c4, 2023-07-21)"
   xmlns:inkscape="http://www.inkscape.org/namespaces/inkscape"
   xmlns:sodipodi="http://sodipodi.sourceforge.net/DTD/sodipodi-0.dtd"
   xmlns="http://www.w3.org/2000/svg"
   xmlns:svg="http://www.w3.org/2000/svg">
  <defs
     id="defs1" />
  <sodipodi:namedview
     id="namedview1"
     pagecolor="#ffffff"
     bordercolor="#000000"
     borderopacity="0.25"
     inkscape:showpageshadow="2"
     inkscape:pageopacity="0.0"
     inkscape:pagecheckerboard="0"
     inkscape:deskcolor="#d1d1d1"
     inkscape:zoom="27.75"
     inkscape:cx="13.513514"
     inkscape:cy="13.981982"
     inkscape:window-width="1920"
     inkscape:window-height="991"
     inkscape:window-x="-9"
     inkscape:window-y="-9"
     inkscape:window-maximized="1"
     inkscape:current-layer="svg1" />
  <path
     d="M13.395 14C11.5655 14 9.99933 13.3472 8.69648 12.0416C7.39364 10.7361 6.74222 9.16663 6.74222 7.33329C6.74222 5.49996 7.39364 3.93051 8.69648 2.62496C9.99933 1.3194 11.5655 0.666626 13.395 0.666626C15.2246 0.666626 16.7907 1.3194 18.0936 2.62496C19.3964 3.93051 20.0478 5.49996 20.0478 7.33329C20.0478 9.16663 19.3964 10.7361 18.0936 12.0416C16.7907 13.3472 15.2246 14 13.395 14ZM0.0894165 27.3333V22.6666C0.0894165 21.7222 0.331967 20.8541 0.817067 20.0625C1.30217 19.2708 1.94666 18.6666 2.75054 18.25C4.46918 17.3888 6.21554 16.743 7.98962 16.3125C9.76371 15.8819 11.5655 15.6666 13.395 15.6666C15.2246 15.6666 17.0264 15.8819 18.8004 16.3125C20.5745 16.743 22.3209 17.3888 24.0395 18.25C24.8434 18.6666 25.4879 19.2708 25.973 20.0625C26.4581 20.8541 26.7006 21.7222 26.7006 22.6666V27.3333H0.0894165ZM3.41582 24H23.3742V22.6666C23.3742 22.3611 23.298 22.0833 23.1455 21.8333C22.9931 21.5833 22.7921 21.3888 22.5426 21.25C21.0458 20.5 19.535 19.9375 18.0104 19.5625C16.4858 19.1875 14.9474 19 13.395 19C11.8427 19 10.3042 19.1875 8.77964 19.5625C7.25504 19.9375 5.7443 20.5 4.24742 21.25C3.99794 21.3888 3.79697 21.5833 3.64451 21.8333C3.49205 22.0833 3.41582 22.3611 3.41582 22.6666V24ZM13.395 10.6666C14.3098 10.6666 15.0929 10.3402 15.7443 9.68746C16.3957 9.03468 16.7214 8.24996 16.7214 7.33329C16.7214 6.41663 16.3957 5.6319 15.7443 4.97913C15.0929 4.32635 14.3098 3.99996 13.395 3.99996C12.4803 3.99996 11.6972 4.32635 11.0458 4.97913C10.3943 5.6319 10.0686 6.41663 10.0686 7.33329C10.0686 8.24996 10.3943 9.03468 11.0458 9.68746C11.6972 10.3402 12.4803 10.6666 13.395 10.6666Z"
     fill="#1C1B1F"
     id="path1"
     inkscape:label="path1"
     style="opacity:1;fill:#00008f;fill-opacity:1" />
</svg>
