<svg width="14" height="14" viewBox="0 0 14 14" fill="none" xmlns="http://www.w3.org/2000/svg">
<path fill-rule="evenodd" clip-rule="evenodd" d="M8.14464 0.297974L10.634 1.25397L10.156 2.49864L9.53331 2.25931L9.03597 3.55597C9.55531 3.86397 9.99864 4.28531 10.3326 4.78664L11.6013 4.22197L11.33 3.61264L12.548 3.07064L13.6326 5.50664L12.4146 6.04864L12.1433 5.43997L10.8753 6.00464C10.9566 6.32264 11 6.65664 11 6.99997C11 7.27064 10.9733 7.53531 10.922 7.79131L12.218 8.28864L12.4566 7.66664L13.702 8.14464L12.746 10.634L11.5013 10.156L11.74 9.53397L10.444 9.03597C10.136 9.55531 9.71464 9.99864 9.21331 10.3326L9.77797 11.6013L10.3873 11.33L10.9293 12.548L8.49331 13.6326L7.95131 12.4146L8.55997 12.1433L7.99531 10.8753C7.67731 10.9566 7.34331 11 6.99997 11C6.72864 11 6.46397 10.9733 6.20797 10.9213L5.71064 12.218L6.33331 12.4566L5.85531 13.702L3.36597 12.746L3.84397 11.5013L4.46531 11.74L4.96397 10.444C4.44464 10.136 4.00131 9.71464 3.66664 9.21331L2.39797 9.77797L2.66931 10.3873L1.45131 10.9293L0.36664 8.49331L1.58464 7.95131L1.85531 8.56064L3.12397 7.99531C3.04331 7.67731 2.99997 7.34331 2.99997 6.99997C2.99997 6.72931 3.02664 6.46464 3.07797 6.20864L1.78131 5.71131L1.54331 6.33331L0.297974 5.85531L1.25397 3.36664L2.49864 3.84464L2.25931 4.46664L3.55597 4.96464C3.86397 4.44464 4.28531 4.00131 4.78664 3.66664L4.22197 2.39797L3.61264 2.66931L3.07064 1.45131L5.50664 0.367307L6.04864 1.58531L5.43997 1.85664L6.00464 3.12464C6.32264 3.04331 6.65664 2.99997 6.99997 2.99997C7.27064 2.99997 7.53531 3.02664 7.79131 3.07797L8.28797 1.78131L7.66664 1.54331L8.14464 0.297974ZM5.75597 7.82131C5.57197 8.13997 5.68131 8.54797 5.99997 8.73197C6.31864 8.91597 6.72664 8.80664 6.91064 8.48797C7.09464 8.16931 6.98531 7.76131 6.66664 7.57731C6.34797 7.39331 5.93997 7.50264 5.75597 7.82131ZM8.33331 6.33331C7.96531 6.33331 7.66664 6.63197 7.66664 6.99997C7.66664 7.36797 7.96531 7.66664 8.33331 7.66664C8.70131 7.66664 8.99997 7.36797 8.99997 6.99997C8.99997 6.63197 8.70131 6.33331 8.33331 6.33331ZM5.99997 5.26797C5.68131 5.45197 5.57197 5.85997 5.75597 6.17864C5.93997 6.49731 6.34797 6.60664 6.66664 6.42264C6.98531 6.23864 7.09464 5.83064 6.91064 5.51197C6.72664 5.19331 6.31864 5.08397 5.99997 5.26797Z" fill="#000091"/>
</svg>
